<svg width="298" height="27" viewBox="0 0 298 27" fill="none" xmlns="http://www.w3.org/2000/svg">
<path d="M17.82 9.36014C17.364 8.52014 16.704 7.88414 15.84 7.45213C15 6.99613 14.004 6.76814 12.852 6.76814C10.86 6.76814 9.26401 7.42814 8.06401 8.74814C6.86401 10.0441 6.26401 11.7841 6.26401 13.9681C6.26401 16.2961 6.88801 18.1201 8.13601 19.4401C9.40801 20.7361 11.148 21.3841 13.356 21.3841C14.868 21.3841 16.14 21.0001 17.172 20.2321C18.228 19.4641 18.996 18.3601 19.476 16.9201H11.664V12.3841H25.056V18.1081C24.6 19.6441 23.82 21.0721 22.716 22.3921C21.636 23.7121 20.256 24.7801 18.576 25.5961C16.896 26.4121 15 26.8201 12.888 26.8201C10.392 26.8201 8.16001 26.2801 6.19201 25.2001C4.24801 24.0961 2.72401 22.5721 1.62001 20.6281C0.540012 18.6841 1.17123e-05 16.4641 1.17123e-05 13.9681C1.17123e-05 11.4721 0.540012 9.25214 1.62001 7.30814C2.72401 5.34014 4.24801 3.81614 6.19201 2.73614C8.13601 1.63214 10.356 1.08014 12.852 1.08014C15.876 1.08014 18.42 1.81214 20.484 3.27613C22.572 4.74014 23.952 6.76814 24.624 9.36014H17.82ZM47.4019 16.2721C47.4019 16.8481 47.3659 17.4481 47.2939 18.0721H33.3619C33.4579 19.3201 33.8539 20.2801 34.5499 20.9521C35.2699 21.6001 36.1459 21.9241 37.1779 21.9241C38.7139 21.9241 39.7819 21.2761 40.3819 19.9801H46.9339C46.5979 21.3001 45.9859 22.4881 45.0979 23.5441C44.2339 24.6001 43.1419 25.4281 41.8219 26.0281C40.5019 26.6281 39.0259 26.9281 37.3939 26.9281C35.4259 26.9281 33.6739 26.5081 32.1379 25.6681C30.6019 24.8281 29.4019 23.6281 28.5379 22.0681C27.6739 20.5081 27.2419 18.6841 27.2419 16.5961C27.2419 14.5081 27.6619 12.6841 28.5019 11.1241C29.3659 9.56414 30.5659 8.36414 32.1019 7.52414C33.6379 6.68414 35.4019 6.26414 37.3939 6.26414C39.3379 6.26414 41.0659 6.67214 42.5779 7.48814C44.0899 8.30414 45.2659 9.46814 46.1059 10.9801C46.9699 12.4921 47.4019 14.2561 47.4019 16.2721ZM41.1019 14.6521C41.1019 13.5961 40.7419 12.7561 40.0219 12.1321C39.3019 11.5081 38.4019 11.1961 37.3219 11.1961C36.2899 11.1961 35.4139 11.4961 34.6939 12.0961C33.9979 12.6961 33.5659 13.5481 33.3979 14.6521H41.1019ZM61.8455 21.4201V26.6401H58.7135C56.4815 26.6401 54.7415 26.1001 53.4935 25.0201C52.2455 23.9161 51.6215 22.1281 51.6215 19.6561V11.6641H49.1735V6.55214H51.6215V1.65614H57.7775V6.55214H61.8095V11.6641H57.7775V19.7281C57.7775 20.3281 57.9215 20.7601 58.2095 21.0241C58.4975 21.2881 58.9775 21.4201 59.6495 21.4201H61.8455ZM82.0474 26.8921C80.1994 26.8921 78.5434 26.5921 77.0794 25.9921C75.6154 25.3921 74.4394 24.5041 73.5514 23.3281C72.6874 22.1521 72.2314 20.7361 72.1834 19.0801H78.7354C78.8314 20.0161 79.1554 20.7361 79.7074 21.2401C80.2594 21.7201 80.9794 21.9601 81.8674 21.9601C82.7794 21.9601 83.4994 21.7561 84.0274 21.3481C84.5554 20.9161 84.8194 20.3281 84.8194 19.5841C84.8194 18.9601 84.6034 18.4441 84.1714 18.0361C83.7634 17.6281 83.2474 17.2921 82.6234 17.0281C82.0234 16.7641 81.1594 16.4641 80.0314 16.1281C78.3994 15.6241 77.0674 15.1201 76.0354 14.6161C75.0034 14.1121 74.1154 13.3681 73.3714 12.3841C72.6274 11.4001 72.2554 10.1161 72.2554 8.53214C72.2554 6.18014 73.1074 4.34414 74.8114 3.02414C76.5154 1.68014 78.7354 1.00814 81.4714 1.00814C84.2554 1.00814 86.4994 1.68014 88.2034 3.02414C89.9074 4.34414 90.8194 6.19214 90.9394 8.56814H84.2794C84.2314 7.75214 83.9314 7.11614 83.3794 6.66014C82.8274 6.18014 82.1194 5.94014 81.2554 5.94014C80.5114 5.94014 79.9114 6.14414 79.4554 6.55214C78.9994 6.93614 78.7714 7.50013 78.7714 8.24414C78.7714 9.06014 79.1554 9.69614 79.9234 10.1521C80.6914 10.6081 81.8914 11.1001 83.5234 11.6281C85.1554 12.1801 86.4754 12.7081 87.4834 13.2121C88.5154 13.7161 89.4034 14.4481 90.1474 15.4081C90.8914 16.3681 91.2634 17.6041 91.2634 19.1161C91.2634 20.5561 90.8914 21.8641 90.1474 23.0401C89.4274 24.2161 88.3714 25.1521 86.9794 25.8481C85.5874 26.5441 83.9434 26.8921 82.0474 26.8921ZM106.248 21.4201V26.6401H103.116C100.884 26.6401 99.1438 26.1001 97.8958 25.0201C96.6478 23.9161 96.0238 22.1281 96.0238 19.6561V11.6641H93.5758V6.55214H96.0238V1.65614H102.18V6.55214H106.212V11.6641H102.18V19.7281C102.18 20.3281 102.324 20.7601 102.612 21.0241C102.9 21.2881 103.38 21.4201 104.052 21.4201H106.248ZM108.453 16.5601C108.453 14.4961 108.837 12.6841 109.605 11.1241C110.397 9.56414 111.465 8.36414 112.809 7.52414C114.153 6.68414 115.653 6.26414 117.309 6.26414C118.725 6.26414 119.961 6.55213 121.017 7.12813C122.097 7.70414 122.925 8.46014 123.501 9.39614V6.55214H129.657V26.6401H123.501V23.7961C122.901 24.7321 122.061 25.4881 120.981 26.0641C119.925 26.6401 118.689 26.9281 117.273 26.9281C115.641 26.9281 114.153 26.5081 112.809 25.6681C111.465 24.8041 110.397 23.5921 109.605 22.0321C108.837 20.4481 108.453 18.6241 108.453 16.5601ZM123.501 16.5961C123.501 15.0601 123.069 13.8481 122.205 12.9601C121.365 12.0721 120.333 11.6281 119.109 11.6281C117.885 11.6281 116.841 12.0721 115.977 12.9601C115.137 13.8241 114.717 15.0241 114.717 16.5601C114.717 18.0961 115.137 19.3201 115.977 20.2321C116.841 21.1201 117.885 21.5641 119.109 21.5641C120.333 21.5641 121.365 21.1201 122.205 20.2321C123.069 19.3441 123.501 18.1321 123.501 16.5961ZM140.266 9.90014C140.986 8.79614 141.886 7.93214 142.966 7.30814C144.046 6.66014 145.246 6.33614 146.566 6.33614V12.8521H144.874C143.338 12.8521 142.186 13.1881 141.418 13.8601C140.65 14.5081 140.266 15.6601 140.266 17.3161V26.6401H134.11V6.55214H140.266V9.90014ZM160.705 21.4201V26.6401H157.573C155.341 26.6401 153.601 26.1001 152.353 25.0201C151.105 23.9161 150.481 22.1281 150.481 19.6561V11.6641H148.033V6.55214H150.481V1.65614H156.637V6.55214H160.669V11.6641H156.637V19.7281C156.637 20.3281 156.781 20.7601 157.069 21.0241C157.357 21.2881 157.837 21.4201 158.509 21.4201H160.705ZM183.07 16.2721C183.07 16.8481 183.034 17.4481 182.962 18.0721H169.03C169.126 19.3201 169.522 20.2801 170.218 20.9521C170.938 21.6001 171.814 21.9241 172.846 21.9241C174.382 21.9241 175.45 21.2761 176.05 19.9801H182.602C182.266 21.3001 181.654 22.4881 180.766 23.5441C179.902 24.6001 178.81 25.4281 177.49 26.0281C176.17 26.6281 174.694 26.9281 173.062 26.9281C171.094 26.9281 169.342 26.5081 167.806 25.6681C166.27 24.8281 165.07 23.6281 164.206 22.0681C163.342 20.5081 162.91 18.6841 162.91 16.5961C162.91 14.5081 163.33 12.6841 164.17 11.1241C165.034 9.56414 166.234 8.36414 167.77 7.52414C169.306 6.68414 171.07 6.26414 173.062 6.26414C175.006 6.26414 176.734 6.67214 178.246 7.48814C179.758 8.30414 180.934 9.46814 181.774 10.9801C182.638 12.4921 183.07 14.2561 183.07 16.2721ZM176.77 14.6521C176.77 13.5961 176.41 12.7561 175.69 12.1321C174.97 11.5081 174.07 11.1961 172.99 11.1961C171.958 11.1961 171.082 11.4961 170.362 12.0961C169.666 12.6961 169.234 13.5481 169.066 14.6521H176.77ZM185.093 16.5601C185.093 14.4961 185.477 12.6841 186.245 11.1241C187.037 9.56414 188.105 8.36414 189.449 7.52414C190.793 6.68414 192.293 6.26414 193.949 6.26414C195.269 6.26414 196.469 6.54014 197.549 7.09214C198.653 7.64414 199.517 8.38814 200.141 9.32414V0.000136375H206.297V26.6401H200.141V23.7601C199.565 24.7201 198.737 25.4881 197.657 26.0641C196.601 26.6401 195.365 26.9281 193.949 26.9281C192.293 26.9281 190.793 26.5081 189.449 25.6681C188.105 24.8041 187.037 23.5921 186.245 22.0321C185.477 20.4481 185.093 18.6241 185.093 16.5601ZM200.141 16.5961C200.141 15.0601 199.709 13.8481 198.845 12.9601C198.005 12.0721 196.973 11.6281 195.749 11.6281C194.525 11.6281 193.481 12.0721 192.617 12.9601C191.777 13.8241 191.357 15.0241 191.357 16.5601C191.357 18.0961 191.777 19.3201 192.617 20.2321C193.481 21.1201 194.525 21.5641 195.749 21.5641C196.973 21.5641 198.005 21.1201 198.845 20.2321C199.709 19.3441 200.141 18.1321 200.141 16.5961ZM240.988 26.6401H234.832L224.536 11.0521V26.6401H218.38V1.36814H224.536L234.832 17.0281V1.36814H240.988V26.6401ZM254.594 26.9281C252.626 26.9281 250.85 26.5081 249.266 25.6681C247.706 24.8281 246.47 23.6281 245.558 22.0681C244.67 20.5081 244.226 18.6841 244.226 16.5961C244.226 14.5321 244.682 12.7201 245.594 11.1601C246.506 9.57614 247.754 8.36414 249.338 7.52414C250.922 6.68414 252.698 6.26414 254.666 6.26414C256.634 6.26414 258.41 6.68414 259.994 7.52414C261.578 8.36414 262.826 9.57614 263.738 11.1601C264.65 12.7201 265.106 14.5321 265.106 16.5961C265.106 18.6601 264.638 20.4841 263.702 22.0681C262.79 23.6281 261.53 24.8281 259.922 25.6681C258.338 26.5081 256.562 26.9281 254.594 26.9281ZM254.594 21.6001C255.77 21.6001 256.766 21.1681 257.582 20.3041C258.422 19.4401 258.842 18.2041 258.842 16.5961C258.842 14.9881 258.434 13.7521 257.618 12.8881C256.826 12.0241 255.842 11.5921 254.666 11.5921C253.466 11.5921 252.47 12.0241 251.678 12.8881C250.886 13.7281 250.49 14.9641 250.49 16.5961C250.49 18.2041 250.874 19.4401 251.642 20.3041C252.434 21.1681 253.418 21.6001 254.594 21.6001ZM297.208 6.55214L291.772 26.6401H284.968L281.8 13.6081L278.524 26.6401H271.756L266.284 6.55214H272.44L275.284 20.9161L278.668 6.55214H285.184L288.604 20.8441L291.412 6.55214H297.208Z" fill="white"/>
</svg>
